<svg width="82" height="88" viewBox="0 0 82 88" fill="none" xmlns="http://www.w3.org/2000/svg">
<path d="M58.9294 17.3848C53.1287 12.2481 45.7461 9.87724 37.9679 10.6675C25.4438 12.1163 15.4245 22.2582 14.238 34.7708C13.447 43.0687 16.4792 51.1031 22.4117 56.7668C26.103 60.323 28.3441 63.4841 28.6078 68.7526H27.4213C26.103 68.7526 24.9165 69.8063 24.9165 71.2551V76.3919C24.9165 77.709 25.9712 78.8944 27.4213 78.8944H31.2445V80.7384H27.8168C27.0258 80.7384 26.4985 81.2652 26.4985 82.0555C26.4985 82.8458 27.0258 83.3726 27.8168 83.3726H31.2445V84.1629C31.2445 86.0069 32.6946 87.5874 34.6721 87.5874H47.3281C49.1737 87.5874 50.7557 86.1386 50.7557 84.1629V83.3726H54.1834C54.9744 83.3726 55.5017 82.8458 55.5017 82.0555C55.5017 81.2652 54.9744 80.7384 54.1834 80.7384H50.7557V78.8944H54.5789C55.8972 78.8944 57.0837 77.8407 57.0837 76.3919V71.2551C57.0837 69.938 56.029 68.7526 54.5789 68.7526H53.3924C53.656 63.7475 55.7654 60.5864 60.1158 56.2399C65.1255 51.2349 67.894 44.5175 67.894 37.4051C67.894 29.7658 64.73 22.5216 58.9294 17.3848ZM48.1191 82.0555V84.2946C48.1191 84.6897 47.8554 85.0849 47.3281 85.0849H34.6721C34.2766 85.0849 33.8811 84.8214 33.8811 84.2946V82.1872V79.0261H47.9872V82.0555H48.1191ZM54.447 76.2602H49.4374H32.6946H27.685V71.5185H30.058H52.0741H54.447V76.2602ZM58.2702 54.5277C54.3152 58.479 51.0194 62.4304 50.7557 68.8843H31.2445C30.9808 62.6938 28.3441 58.8742 24.2573 54.9228C18.8522 49.786 16.2155 42.5419 16.8747 35.0343C17.9294 23.707 26.894 14.4872 38.2316 13.3018C45.2187 12.5115 51.9422 14.6189 57.2155 19.3605C62.357 23.9704 65.2573 30.556 65.2573 37.4051C65.2573 43.859 62.8843 49.9177 58.2702 54.5277Z" fill="#2B59C3"/>
<path d="M51.151 39.1171L45.0867 36.2194L48.2507 26.4727C48.3825 25.9459 48.2507 25.2873 47.7233 25.0239C47.3278 24.6288 46.6687 24.6288 46.1413 25.0239L30.5851 35.8243C30.1896 36.0877 29.9259 36.4829 30.0577 37.0097C30.0577 37.5366 30.3214 37.9317 30.8487 38.0634L36.7812 40.9611L32.6944 50.1809C32.4307 50.7078 32.5626 51.3663 33.0899 51.7615C33.3536 52.0249 33.6172 52.0249 34.0127 52.0249C34.2764 52.0249 34.54 52.0249 34.6719 51.7615L51.2828 41.4879C51.6783 41.2245 51.942 40.8294 51.942 40.3025C51.942 39.7757 51.5465 39.3805 51.151 39.1171ZM36.7812 47.415L39.6815 40.9611C39.9452 40.3025 39.6815 39.5122 39.0224 39.2488L34.0127 36.878L44.5593 29.6338L42.3182 36.7463C42.0545 37.4048 42.45 38.0634 42.9773 38.3268L47.8552 40.6976L36.7812 47.415Z" fill="#2B59C3"/>
<path d="M42.3183 5.66235V1.97437C42.3183 1.18408 41.791 0.657227 41 0.657227C40.209 0.657227 39.6816 1.18408 39.6816 1.97437V5.66235C39.6816 6.45264 40.209 6.97949 41 6.97949C41.791 6.97949 42.3183 6.45264 42.3183 5.66235Z" fill="#2B59C3"/>
<path d="M14.7655 16.068L12.1289 13.4337C11.6015 12.9069 10.8105 12.9069 10.2832 13.4337C9.75586 13.9606 9.75586 14.7509 10.2832 15.2777L12.9198 17.912C13.1835 18.1754 13.579 18.3071 13.8427 18.3071C14.1063 18.3071 14.5018 18.1754 14.7655 17.912C15.2928 17.3851 15.2928 16.5948 14.7655 16.068Z" fill="#2B59C3"/>
<path d="M1.31833 45.439H5.00964C5.80064 45.439 6.32797 44.9121 6.32797 44.1218C6.32797 43.3315 5.80064 42.8047 5.00964 42.8047H1.31833C0.527331 42.8047 0 43.3315 0 44.1218C0 44.9121 0.527331 45.439 1.31833 45.439Z" fill="#2B59C3"/>
<path d="M80.6815 45.439C81.4725 45.439 81.9998 44.9121 81.9998 44.1218C81.9998 43.3315 81.4725 42.8047 80.6815 42.8047H76.9902C76.1992 42.8047 75.6719 43.3315 75.6719 44.1218C75.6719 44.9121 76.1992 45.439 76.9902 45.439H80.6815Z" fill="#2B59C3"/>
<path d="M69.2119 17.912L71.8485 15.2777C72.3758 14.7509 72.3758 13.9606 71.8485 13.4337C71.3212 12.9069 70.5302 12.9069 70.0029 13.4337L67.3662 16.068C66.8389 16.5948 66.8389 17.3851 67.3662 17.912C67.6299 18.1754 68.0254 18.3071 68.289 18.3071C68.5527 18.3071 68.9482 18.1754 69.2119 17.912Z" fill="#2B59C3"/>
</svg>
